# xmcd CD database file
#
# Track frame offsets:
#	150
#	16485
#	32840
#	55970
#	67685
#	87130
#	108780
#	130295
#	148500
#	165930
#	181745
#	204915
#
# Disc length: 2949 seconds
#
# Revision: 0
# Processed by: cddbd v1.5.1PL2 Copyright (c) Steve Scherf et al.
# Submitted via: CDex 1.51
#
DISCID=8f0b830c
DTITLE=John Sheldon and Blue Streak - Boneyard
DYEAR=1900
DGENRE=Jazz
TTITLE0=Too Far
TTITLE1=Won't Let Go
TTITLE2=Blue Highway
TTITLE3=The Sun Went Down Red
TTITLE4=I Can't Wait
TTITLE5=Little Things ( Duet With James Taylor)
TTITLE6=When Gold Is Tin
TTITLE7=Boneyard
TTITLE8=One Tear At A Time
TTITLE9=727
TTITLE10=Way Down
TTITLE11=Golden Horn
EXTD=
EXTT0=
EXTT1=
EXTT2=
EXTT3=
EXTT4=
EXTT5=
EXTT6=
EXTT7=
EXTT8=
EXTT9=
EXTT10=
EXTT11=
PLAYORDER=
